<mxfile host="app.diagrams.net" modified="2020-10-24T19:00:05.268Z" agent="5.0 (Windows)" etag="_lcgSESv8RZWKUFuq_TG" version="13.8.1" type="github" pages="2">
  <diagram id="nHpkZRgL_oSd70SJmsG6" name="masuk">
    <mxGraphModel dx="1038" dy="547" grid="1" gridSize="10" guides="1" tooltips="1" connect="1" arrows="1" fold="1" page="1" pageScale="1" pageWidth="850" pageHeight="1100" background="#DAD2D8" math="0" shadow="0">
      <root>
        <mxCell id="0" />
        <mxCell id="1" parent="0" />
        <mxCell id="FnmrPs8hBMYChXXwTOcG-1" value="Admin TPP" style="shape=umlActor;verticalLabelPosition=bottom;verticalAlign=top;html=1;fillColor=#FAE5C7;strokeColor=#0F8B8D;fontColor=#143642;" vertex="1" parent="1">
          <mxGeometry x="160" y="170" width="30" height="60" as="geometry" />
        </mxCell>
        <mxCell id="FnmrPs8hBMYChXXwTOcG-2" value="Operasional Beacukai" style="shape=umlActor;verticalLabelPosition=bottom;verticalAlign=top;html=1;fillColor=#FAE5C7;strokeColor=#0F8B8D;fontColor=#143642;" vertex="1" parent="1">
          <mxGeometry x="610" y="100" width="30" height="60" as="geometry" />
        </mxCell>
        <mxCell id="FnmrPs8hBMYChXXwTOcG-3" value="Supir Truk" style="shape=umlActor;verticalLabelPosition=bottom;verticalAlign=top;html=1;fillColor=#FAE5C7;strokeColor=#0F8B8D;fontColor=#143642;" vertex="1" parent="1">
          <mxGeometry x="610" y="255" width="30" height="60" as="geometry" />
        </mxCell>
        <mxCell id="FnmrPs8hBMYChXXwTOcG-4" value="Data kontainer dikirim" style="ellipse;whiteSpace=wrap;html=1;fillColor=#FAE5C7;strokeColor=#0F8B8D;fontColor=#143642;" vertex="1" parent="1">
          <mxGeometry x="355" y="112" width="140" height="70" as="geometry" />
        </mxCell>
        <mxCell id="FnmrPs8hBMYChXXwTOcG-5" value="Surat jalan TPS lini 1" style="ellipse;whiteSpace=wrap;html=1;fillColor=#FAE5C7;strokeColor=#0F8B8D;fontColor=#143642;" vertex="1" parent="1">
          <mxGeometry x="355" y="250" width="140" height="70" as="geometry" />
        </mxCell>
        <mxCell id="FnmrPs8hBMYChXXwTOcG-8" value="" style="endArrow=classic;html=1;entryX=0;entryY=0.5;entryDx=0;entryDy=0;strokeColor=#A8201A;fontColor=#143642;labelBackgroundColor=#DAD2D8;" edge="1" parent="1" target="FnmrPs8hBMYChXXwTOcG-4">
          <mxGeometry width="50" height="50" relative="1" as="geometry">
            <mxPoint x="190" y="200" as="sourcePoint" />
            <mxPoint x="240" y="150" as="targetPoint" />
          </mxGeometry>
        </mxCell>
        <mxCell id="FnmrPs8hBMYChXXwTOcG-9" value="" style="endArrow=classic;html=1;entryX=1;entryY=0.5;entryDx=0;entryDy=0;strokeColor=#A8201A;fontColor=#143642;labelBackgroundColor=#DAD2D8;" edge="1" parent="1" source="FnmrPs8hBMYChXXwTOcG-2" target="FnmrPs8hBMYChXXwTOcG-4">
          <mxGeometry width="50" height="50" relative="1" as="geometry">
            <mxPoint x="600" y="142" as="sourcePoint" />
            <mxPoint x="480" y="100" as="targetPoint" />
          </mxGeometry>
        </mxCell>
        <mxCell id="FnmrPs8hBMYChXXwTOcG-10" value="" style="endArrow=classic;html=1;entryX=0;entryY=0.5;entryDx=0;entryDy=0;strokeColor=#A8201A;fontColor=#143642;labelBackgroundColor=#DAD2D8;" edge="1" parent="1" target="FnmrPs8hBMYChXXwTOcG-5">
          <mxGeometry width="50" height="50" relative="1" as="geometry">
            <mxPoint x="190" y="210" as="sourcePoint" />
            <mxPoint x="240" y="160" as="targetPoint" />
          </mxGeometry>
        </mxCell>
        <mxCell id="FnmrPs8hBMYChXXwTOcG-11" value="" style="endArrow=classic;html=1;entryX=1;entryY=0.5;entryDx=0;entryDy=0;strokeColor=#A8201A;fontColor=#143642;labelBackgroundColor=#DAD2D8;" edge="1" parent="1" target="FnmrPs8hBMYChXXwTOcG-5">
          <mxGeometry width="50" height="50" relative="1" as="geometry">
            <mxPoint x="600" y="300" as="sourcePoint" />
            <mxPoint x="490" y="260" as="targetPoint" />
          </mxGeometry>
        </mxCell>
        <mxCell id="FnmrPs8hBMYChXXwTOcG-17" value="" style="rounded=0;whiteSpace=wrap;html=1;sketch=0;strokeColor=#0F8B8D;fillColor=none;fontColor=#143642;" vertex="1" parent="1">
          <mxGeometry x="130" y="80" width="570" height="270" as="geometry" />
        </mxCell>
      </root>
    </mxGraphModel>
  </diagram>
  <diagram id="F81-ASgbcVVaWtNH7LHV" name="keluar">
    <mxGraphModel dx="1038" dy="547" grid="1" gridSize="10" guides="1" tooltips="1" connect="1" arrows="1" fold="1" page="1" pageScale="1" pageWidth="850" pageHeight="1100" math="0" shadow="0">
      <root>
        <mxCell id="TCylXNqcK5WXPwDXDHqL-0" />
        <mxCell id="TCylXNqcK5WXPwDXDHqL-1" parent="TCylXNqcK5WXPwDXDHqL-0" />
        <mxCell id="ypAlKwS_-okL04ES1de_-0" value="Admin TPP" style="shape=umlActor;verticalLabelPosition=bottom;verticalAlign=top;html=1;fillColor=#FAE5C7;strokeColor=#0F8B8D;fontColor=#143642;" vertex="1" parent="TCylXNqcK5WXPwDXDHqL-1">
          <mxGeometry x="170" y="170" width="30" height="60" as="geometry" />
        </mxCell>
        <mxCell id="ypAlKwS_-okL04ES1de_-1" value="EMKL" style="shape=umlActor;verticalLabelPosition=bottom;verticalAlign=top;html=1;fillColor=#FAE5C7;strokeColor=#0F8B8D;fontColor=#143642;" vertex="1" parent="TCylXNqcK5WXPwDXDHqL-1">
          <mxGeometry x="620" y="170" width="30" height="60" as="geometry" />
        </mxCell>
        <mxCell id="ypAlKwS_-okL04ES1de_-3" value="Dokumen SPPB diteriima" style="ellipse;whiteSpace=wrap;html=1;fillColor=#FAE5C7;strokeColor=#0F8B8D;fontColor=#143642;" vertex="1" parent="TCylXNqcK5WXPwDXDHqL-1">
          <mxGeometry x="350" y="165" width="140" height="70" as="geometry" />
        </mxCell>
        <mxCell id="ypAlKwS_-okL04ES1de_-5" value="" style="endArrow=classic;html=1;entryX=0;entryY=0.5;entryDx=0;entryDy=0;strokeColor=#A8201A;fontColor=#143642;labelBackgroundColor=#DAD2D8;" edge="1" parent="TCylXNqcK5WXPwDXDHqL-1" target="ypAlKwS_-okL04ES1de_-3">
          <mxGeometry width="50" height="50" relative="1" as="geometry">
            <mxPoint x="190" y="200" as="sourcePoint" />
            <mxPoint x="240" y="150" as="targetPoint" />
          </mxGeometry>
        </mxCell>
        <mxCell id="ypAlKwS_-okL04ES1de_-6" value="" style="endArrow=classic;html=1;entryX=1;entryY=0.5;entryDx=0;entryDy=0;strokeColor=#A8201A;fontColor=#143642;labelBackgroundColor=#DAD2D8;" edge="1" parent="TCylXNqcK5WXPwDXDHqL-1" source="ypAlKwS_-okL04ES1de_-1" target="ypAlKwS_-okL04ES1de_-3">
          <mxGeometry width="50" height="50" relative="1" as="geometry">
            <mxPoint x="600" y="142" as="sourcePoint" />
            <mxPoint x="480" y="100" as="targetPoint" />
          </mxGeometry>
        </mxCell>
        <mxCell id="ypAlKwS_-okL04ES1de_-9" value="" style="rounded=0;whiteSpace=wrap;html=1;sketch=0;strokeColor=#0F8B8D;fillColor=none;fontColor=#143642;" vertex="1" parent="TCylXNqcK5WXPwDXDHqL-1">
          <mxGeometry x="120" y="80" width="570" height="270" as="geometry" />
        </mxCell>
      </root>
    </mxGraphModel>
  </diagram>
</mxfile>
